<svg width="24" height="22" viewBox="0 0 24 22" fill="none" xmlns="http://www.w3.org/2000/svg">
<g filter="url(#filter0_d_4402_328614)">
<path d="M17.8978 7.96575C16.2803 7.96575 15.5971 10.6979 14.8743 13.5906C14.6802 14.3675 14.4794 15.1711 14.2384 15.7485C14.0278 16.2545 13.8061 16.5329 13.6142 16.5329C13.4223 16.5329 13.2006 16.2545 12.99 15.7489C12.7495 15.1711 12.5487 14.3679 12.3541 13.5902C12.2488 13.1699 12.1444 12.7518 12.0395 12.339C11.9989 12.1802 11.8548 12.0704 11.691 12.0731H11.6835C11.4554 12.0771 11.2908 12.2926 11.347 12.5135C11.4532 12.9298 11.5581 13.3484 11.6616 13.7642C12.1096 15.5553 12.5326 17.2469 13.6142 17.2469C14.6958 17.2469 15.1193 15.5548 15.5668 13.7638C15.8925 12.4604 16.2294 11.1124 16.6377 10.1334C17.0393 9.16872 17.4632 8.67968 17.8978 8.67968C18.3324 8.67968 18.7559 9.16872 19.1579 10.1334C19.3109 10.5007 19.4537 10.9196 19.5903 11.369C19.6447 11.5484 19.8375 11.6568 20.0182 11.6081C20.0204 11.6077 20.0226 11.6068 20.0253 11.6064C20.2194 11.555 20.3323 11.3534 20.2739 11.161C19.7197 9.33471 19.0428 7.9653 17.8978 7.9653V7.96575Z" fill="white" stroke="white" stroke-width="0.3"></path>
<path d="M11.2542 9.49329C11.3234 9.71594 11.165 9.9444 10.932 9.9569C10.9298 9.9569 10.9271 9.9569 10.9249 9.9569C10.7651 9.96538 10.6201 9.86453 10.5728 9.71148C10.3725 9.06537 10.1623 8.46121 9.93833 7.92398C9.24938 6.27078 8.52519 5.46671 7.72424 5.46671C6.9233 5.46671 6.19955 6.27078 5.51061 7.92442C5.01755 9.10732 4.59097 10.6159 4.18805 12.1772C4.15235 12.3156 4.20367 12.461 4.31656 12.5489C4.65255 12.8099 4.86851 13.2182 4.86851 13.6765C4.86851 14.4988 4.17377 15.1583 3.33891 15.1008C2.63569 15.0521 2.06588 14.4828 2.01635 13.78C1.96326 13.0273 2.49424 12.3878 3.20193 12.2687C3.34338 12.2451 3.45894 12.1433 3.49464 12.0041C4.50173 8.09576 5.58869 4.75278 7.72424 4.75278C9.38191 4.75278 10.4073 6.76517 11.2542 9.49329ZM3.4411 12.963C3.04665 12.963 2.72716 13.2825 2.72716 13.6769C2.72716 14.0714 3.04665 14.3909 3.4411 14.3909C3.83554 14.3909 4.15503 14.0714 4.15503 13.6769C4.15503 13.2825 3.83554 12.963 3.4411 12.963Z" fill="white" stroke="white" stroke-width="0.3"></path>
<path d="M5.29384 12.6008C5.38799 12.7623 5.59191 12.8212 5.75879 12.7369C7.32766 11.9408 9.1763 11.3563 12.0079 11.3563C12.8771 11.3563 13.6544 11.4112 14.359 11.5107C14.5344 11.5352 14.7003 11.4264 14.7499 11.2563C14.8101 11.0489 14.6731 10.8365 14.4594 10.8061C13.7218 10.7013 12.9106 10.6424 12.0079 10.6424C9.04779 10.6424 7.07377 11.2751 5.44288 12.0988C5.25815 12.192 5.18988 12.4218 5.29384 12.6008Z" fill="white" stroke="white" stroke-width="0.3"></path>
<path d="M21.5858 14.6866C21.0281 15.2444 20.124 15.2444 19.5667 14.6866C19.2401 14.36 19.1049 13.9147 19.1611 13.4894C19.1803 13.3444 19.1116 13.2021 18.9844 13.1293C18.3812 12.7853 17.7507 12.4663 17.0466 12.1963C16.8739 12.1303 16.782 11.9411 16.8337 11.7635C16.8922 11.5649 17.1072 11.4596 17.3004 11.5333C18.0612 11.8242 18.7359 12.1669 19.3708 12.5292C19.4909 12.5979 19.6399 12.5903 19.7528 12.5105C20.3101 12.116 21.0865 12.1682 21.5858 12.6671C22.1436 13.2248 22.1436 14.1289 21.5858 14.6862V14.6866ZM20.5761 12.9629C20.1816 12.9629 19.8621 13.2824 19.8621 13.6768C19.8621 14.0713 20.1816 14.3908 20.5761 14.3908C20.9705 14.3908 21.29 14.0713 21.29 13.6768C21.29 13.2824 20.9705 12.9629 20.5761 12.9629Z" fill="white" stroke="white" stroke-width="0.3"></path>
</g>
<defs>
<filter id="filter0_d_4402_328614" x="-0.157895" y="-1.15789" width="24.3158" height="24.3158" filterUnits="userSpaceOnUse" color-interpolation-filters="sRGB">
<feFlood flood-opacity="0" result="BackgroundImageFix"></feFlood>
<feColorMatrix in="SourceAlpha" type="matrix" values="0 0 0 0 0 0 0 0 0 0 0 0 0 0 0 0 0 0 127 0" result="hardAlpha"></feColorMatrix>
<feOffset></feOffset>
<feGaussianBlur stdDeviation="0.578947"></feGaussianBlur>
<feComposite in2="hardAlpha" operator="out"></feComposite>
<feColorMatrix type="matrix" values="0 0 0 0 1 0 0 0 0 1 0 0 0 0 1 0 0 0 0.05 0"></feColorMatrix>
<feBlend mode="normal" in2="BackgroundImageFix" result="effect1_dropShadow_4402_328614"></feBlend>
<feBlend mode="normal" in="SourceGraphic" in2="effect1_dropShadow_4402_328614" result="shape"></feBlend>
</filter>
</defs>
</svg>