<svg width="24" height="22" viewBox="0 0 24 22" fill="none" xmlns="http://www.w3.org/2000/svg">
<g filter="url(#filter0_d_4402_328587)">
<path d="M17.8985 7.96575C16.281 7.96575 15.5979 10.6979 14.875 13.5906C14.6809 14.3675 14.4801 15.1711 14.2391 15.7485C14.0285 16.2545 13.8068 16.5329 13.6149 16.5329C13.423 16.5329 13.2013 16.2545 12.9907 15.7489C12.7502 15.1711 12.5494 14.3679 12.3548 13.5902C12.2495 13.1699 12.1451 12.7518 12.0402 12.339C11.9996 12.1802 11.8555 12.0704 11.6917 12.0731H11.6842C11.4562 12.0771 11.2915 12.2926 11.3477 12.5135C11.4539 12.9298 11.5588 13.3484 11.6623 13.7642C12.1103 15.5553 12.5333 17.2469 13.6149 17.2469C14.6965 17.2469 15.12 15.5548 15.5675 13.7638C15.8932 12.4604 16.2301 11.1124 16.6384 10.1334C17.04 9.16872 17.4639 8.67968 17.8985 8.67968C18.3331 8.67968 18.7566 9.16872 19.1586 10.1334C19.3116 10.5007 19.4544 10.9196 19.591 11.369C19.6454 11.5484 19.8382 11.6568 20.0189 11.6081C20.0211 11.6077 20.0233 11.6068 20.026 11.6064C20.2201 11.555 20.333 11.3534 20.2746 11.161C19.7204 9.33471 19.0435 7.9653 17.8985 7.9653V7.96575Z" fill="#121110" stroke="#121110" stroke-width="0.3"></path>
<path d="M11.2545 9.49329C11.3236 9.71594 11.1652 9.9444 10.9323 9.9569C10.9301 9.9569 10.9274 9.9569 10.9252 9.9569C10.7654 9.96538 10.6204 9.86453 10.5731 9.71148C10.3728 9.06537 10.1626 8.46121 9.9386 7.92398C9.24966 6.27078 8.52546 5.46671 7.72452 5.46671C6.92358 5.46671 6.19983 6.27078 5.51088 7.92442C5.01782 9.10732 4.59125 10.6159 4.18832 12.1772C4.15263 12.3156 4.20394 12.461 4.31683 12.5489C4.65282 12.8099 4.86879 13.2182 4.86879 13.6765C4.86879 14.4988 4.17404 15.1583 3.33919 15.1008C2.63597 15.0521 2.06616 14.4828 2.01663 13.78C1.96353 13.0273 2.49452 12.3878 3.2022 12.2687C3.34365 12.2451 3.45922 12.1433 3.49492 12.0041C4.50201 8.09576 5.58897 4.75278 7.72452 4.75278C9.38218 4.75278 10.4076 6.76517 11.2545 9.49329ZM3.44137 12.963C3.04692 12.963 2.72744 13.2825 2.72744 13.6769C2.72744 14.0714 3.04692 14.3909 3.44137 14.3909C3.83582 14.3909 4.1553 14.0714 4.1553 13.6769C4.1553 13.2825 3.83582 12.963 3.44137 12.963Z" fill="#121110" stroke="#121110" stroke-width="0.3"></path>
<path d="M5.29406 12.6008C5.38821 12.7623 5.59212 12.8212 5.75901 12.7369C7.32787 11.9408 9.17651 11.3563 12.0081 11.3563C12.8774 11.3563 13.6547 11.4112 14.3592 11.5107C14.5346 11.5352 14.7006 11.4264 14.7501 11.2563C14.8103 11.0489 14.6733 10.8365 14.4596 10.8061C13.722 10.7013 12.9108 10.6424 12.0081 10.6424C9.048 10.6424 7.07398 11.2751 5.44309 12.0988C5.25836 12.192 5.19009 12.4218 5.29406 12.6008Z" fill="#121110" stroke="#121110" stroke-width="0.3"></path>
<path d="M21.5856 14.6866C21.0279 15.2444 20.1239 15.2444 19.5666 14.6866C19.2399 14.36 19.1047 13.9147 19.1609 13.4894C19.1801 13.3444 19.1114 13.2021 18.9842 13.1293C18.381 12.7853 17.7505 12.4663 17.0464 12.1963C16.8737 12.1303 16.7818 11.9411 16.8335 11.7635C16.892 11.5649 17.1071 11.4596 17.3003 11.5333C18.061 11.8242 18.7357 12.1669 19.3707 12.5292C19.4907 12.5979 19.6397 12.5903 19.7526 12.5105C20.3099 12.116 21.0863 12.1682 21.5856 12.6671C22.1434 13.2248 22.1434 14.1289 21.5856 14.6862V14.6866ZM20.5759 12.9629C20.1814 12.9629 19.8619 13.2824 19.8619 13.6768C19.8619 14.0713 20.1814 14.3908 20.5759 14.3908C20.9703 14.3908 21.2898 14.0713 21.2898 13.6768C21.2898 13.2824 20.9703 12.9629 20.5759 12.9629Z" fill="#121110" stroke="#121110" stroke-width="0.3"></path>
</g>
<defs>
<filter id="filter0_d_4402_328587" x="-0.157895" y="-1.15789" width="24.3158" height="24.3158" filterUnits="userSpaceOnUse" color-interpolation-filters="sRGB">
<feFlood flood-opacity="0" result="BackgroundImageFix"></feFlood>
<feColorMatrix in="SourceAlpha" type="matrix" values="0 0 0 0 0 0 0 0 0 0 0 0 0 0 0 0 0 0 127 0" result="hardAlpha"></feColorMatrix>
<feOffset></feOffset>
<feGaussianBlur stdDeviation="0.578947"></feGaussianBlur>
<feComposite in2="hardAlpha" operator="out"></feComposite>
<feColorMatrix type="matrix" values="0 0 0 0 0 0 0 0 0 0 0 0 0 0 0 0 0 0 0.12 0"></feColorMatrix>
<feBlend mode="normal" in2="BackgroundImageFix" result="effect1_dropShadow_4402_328587"></feBlend>
<feBlend mode="normal" in="SourceGraphic" in2="effect1_dropShadow_4402_328587" result="shape"></feBlend>
</filter>
</defs>
</svg>